<svg xmlns="http://www.w3.org/2000/svg" viewBox="0 0 969.52 158.3"><defs><style>.cls-1{fill:#bba14f;}.cls-2{fill:#224962;}</style></defs><g id="Layer_2" data-name="Layer 2"><g id="Layer_1-2" data-name="Layer 1"><path class="cls-1" d="M161.2,111.42H56a8.32,8.32,0,0,1-8.32-8.31V8.31A8.32,8.32,0,0,1,56,0H161.2V15.72H63.4v80h97.8Z"/><path class="cls-1" d="M113.51,158.3H8.31A8.32,8.32,0,0,1,0,150V55.19a8.32,8.32,0,0,1,8.31-8.32h105.2V62.59H15.72v80h97.79Z"/><path class="cls-1" d="M188.41,158.3h-81.3A8.32,8.32,0,0,1,98.8,150V55.19a8.32,8.32,0,0,1,8.31-8.32h81.3a25.45,25.45,0,0,1,25.42,25.42v60.59A25.45,25.45,0,0,1,188.41,158.3Zm-73.9-15.72h73.9a9.71,9.71,0,0,0,9.7-9.7V72.29a9.71,9.71,0,0,0-9.7-9.7h-73.9Z"/><path class="cls-2" d="M298.57,137.4a39.8,39.8,0,0,1-19.33-4.52,31.84,31.84,0,0,1-12.85-12.74,39.38,39.38,0,0,1-4.56-19.38,39.33,39.33,0,0,1,4.56-19.38,31.86,31.86,0,0,1,12.85-12.75,39.8,39.8,0,0,1,19.33-4.51,44.28,44.28,0,0,1,17.79,3.34,27.56,27.56,0,0,1,12,9.56,25.36,25.36,0,0,1,4.3,14.82v1.38H320V91.84q0-8.18-5.25-12.43t-16.09-4.25q-8.4,0-13.86,2.71a17.52,17.52,0,0,0-8.18,8.34q-2.7,5.63-2.71,14.55c0,5.87.91,10.71,2.71,14.49a17.42,17.42,0,0,0,8.18,8.39q5.46,2.72,13.86,2.71,10.83,0,16.09-4.25T320,109.68V108.3h12.64v1.38a25.43,25.43,0,0,1-4.3,14.76,27.38,27.38,0,0,1-12,9.61A44.28,44.28,0,0,1,298.57,137.4Z"/><path class="cls-2" d="M355.28,136.33H343.92V65.18h11.36Zm21,0H347.63V126h28.68q8.28,0,13.54-2.49a16,16,0,0,0,7.8-8.07q2.55-5.58,2.55-14.71T397.65,86a16,16,0,0,0-7.8-8q-5.27-2.51-13.54-2.5H347.63V65.18h28.68q11.15,0,19.17,4.3A30.33,30.33,0,0,1,407.9,81.75q4.41,8,4.41,19t-4.41,19A30.24,30.24,0,0,1,395.48,132Q387.46,136.34,376.31,136.33Z"/><path class="cls-2" d="M457.55,137.4a39.77,39.77,0,0,1-19.33-4.52,31.84,31.84,0,0,1-12.85-12.74,39.38,39.38,0,0,1-4.56-19.38,39.33,39.33,0,0,1,4.56-19.38,31.86,31.86,0,0,1,12.85-12.75,39.77,39.77,0,0,1,19.33-4.51,44.32,44.32,0,0,1,17.79,3.34,27.56,27.56,0,0,1,12,9.56,25.36,25.36,0,0,1,4.3,14.82v1.38H479V91.84q0-8.18-5.25-12.43t-16.09-4.25q-8.4,0-13.86,2.71a17.52,17.52,0,0,0-8.18,8.34q-2.72,5.63-2.71,14.55c0,5.87.9,10.71,2.71,14.49a17.42,17.42,0,0,0,8.18,8.39q5.46,2.72,13.86,2.71,10.83,0,16.09-4.25T479,109.68V108.3h12.64v1.38a25.43,25.43,0,0,1-4.3,14.76,27.38,27.38,0,0,1-12,9.61A44.31,44.31,0,0,1,457.55,137.4Z"/><path class="cls-2" d="M521,138.14a15.32,15.32,0,0,1-7.8-2,14.16,14.16,0,0,1-5.37-5.56,19.17,19.17,0,0,1,0-16.89,14.07,14.07,0,0,1,5.37-5.55,15.32,15.32,0,0,1,7.8-2,16.45,16.45,0,0,1,6.8,1.37,11.65,11.65,0,0,1,4.84,3.86,10,10,0,0,1,1.78,5.92v.47h-2.18v-.47a8.23,8.23,0,0,0-2.93-6.71q-2.94-2.4-8.31-2.4a14.07,14.07,0,0,0-6.94,1.62,10.85,10.85,0,0,0-4.49,4.72,19.06,19.06,0,0,0,0,15.15,10.82,10.82,0,0,0,4.49,4.75,14.07,14.07,0,0,0,6.94,1.62c3.58,0,6.35-.81,8.31-2.41a8.21,8.21,0,0,0,2.93-6.71v-.46h2.18V127a10,10,0,0,1-1.78,5.9,11.55,11.55,0,0,1-4.84,3.89A16.45,16.45,0,0,1,521,138.14Z"/><path class="cls-2" d="M557.44,138.14a15.65,15.65,0,0,1-7.86-2,14.11,14.11,0,0,1-5.46-5.56,18.91,18.91,0,0,1,0-16.89,14,14,0,0,1,5.46-5.55,16.78,16.78,0,0,1,15.78,0,14.23,14.23,0,0,1,5.41,5.55,18.91,18.91,0,0,1,0,16.89,14.32,14.32,0,0,1-5.41,5.56A15.64,15.64,0,0,1,557.44,138.14Zm0-2a14.42,14.42,0,0,0,7.06-1.62,11,11,0,0,0,4.54-4.75,18.84,18.84,0,0,0,0-15.15,11,11,0,0,0-4.54-4.72,16.13,16.13,0,0,0-14.09,0,11,11,0,0,0-4.56,4.72,18.73,18.73,0,0,0,0,15.15,11,11,0,0,0,4.56,4.75A14.43,14.43,0,0,0,557.44,136.11Z"/><path class="cls-2" d="M583.87,137.68h-2.09v-31h2.32l18,23.23,3.61,4.73h.18l0-4.68V106.67h2v31h-2.26l-17.77-22.91-3.84-5h-.19l0,5Z"/><path class="cls-2" d="M629.59,138.14a17.28,17.28,0,0,1-7.38-1.36A9.32,9.32,0,0,1,618,133.1a9.94,9.94,0,0,1-1.34-5v-.27h2.08v.55a7.56,7.56,0,0,0,1.14,4.24,7.1,7.1,0,0,0,3.54,2.66,17.67,17.67,0,0,0,6.2.92,18.32,18.32,0,0,0,5.39-.67,6.74,6.74,0,0,0,3.26-2,5.13,5.13,0,0,0,1.11-3.38,5,5,0,0,0-1.83-4.3,15.11,15.11,0,0,0-5.57-2.18l-5.88-1.2a27.67,27.67,0,0,1-4.51-1.44,8.13,8.13,0,0,1-3.36-2.47,6.63,6.63,0,0,1-1.25-4.19,7.07,7.07,0,0,1,.67-2.94,7.28,7.28,0,0,1,2.11-2.61,11,11,0,0,1,3.7-1.85,18.39,18.39,0,0,1,5.42-.7,15.06,15.06,0,0,1,6.94,1.39,9.13,9.13,0,0,1,4,3.68,10.16,10.16,0,0,1,1.28,5v.28h-2.09V116a7.84,7.84,0,0,0-1.08-4.23,6.77,6.77,0,0,0-3.33-2.64,15.56,15.56,0,0,0-5.72-.9,19.15,19.15,0,0,0-5.46.65,6.45,6.45,0,0,0-3.24,1.94,4.92,4.92,0,0,0-1.06,3.24,5.71,5.71,0,0,0,.81,3.24,5.49,5.49,0,0,0,2.5,1.92,25.92,25.92,0,0,0,4.28,1.32l5.83,1.2a20.5,20.5,0,0,1,4.58,1.46,8.21,8.21,0,0,1,3.21,2.54,6.71,6.71,0,0,1,1.18,4.1,7.11,7.11,0,0,1-1.27,4,8.89,8.89,0,0,1-3.86,3.1A16.27,16.27,0,0,1,629.59,138.14Z"/><path class="cls-2" d="M676.09,108.57H647.73v-1.9h28.36ZM663,137.68h-2v-31h2Z"/><path class="cls-2" d="M685.9,137.68h-2.08v-31h14.53a13.37,13.37,0,0,1,5.44,1,8.35,8.35,0,0,1,3.72,3,8.25,8.25,0,0,1,1.35,4.76,8.15,8.15,0,0,1-1.28,4.61,8.3,8.3,0,0,1-3.47,3,12.32,12.32,0,0,1-5.11,1.09v.18a4.86,4.86,0,0,1,2.29,1.25,11.3,11.3,0,0,1,1.73,2.22l6.25,9.86H707l-6-9.3a8.56,8.56,0,0,0-1.76-2.18,6.5,6.5,0,0,0-2.38-1.25,13.28,13.28,0,0,0-3.59-.41H685.9Zm0-29.11v14.16h12.45a9.84,9.84,0,0,0,6.2-1.71q2.18-1.71,2.18-5.37a6.42,6.42,0,0,0-2.18-5.34,9.72,9.72,0,0,0-6.2-1.74Z"/><path class="cls-2" d="M731.07,138.14a15.57,15.57,0,0,1-7.08-1.53,11.11,11.11,0,0,1-4.77-4.46,14.18,14.18,0,0,1-1.71-7.24V106.67h2.08v18.19a13.6,13.6,0,0,0,1.3,6.36,8.11,8.11,0,0,0,3.86,3.68,17.16,17.16,0,0,0,12.66,0,8.29,8.29,0,0,0,3.86-3.68,13.46,13.46,0,0,0,1.32-6.36V106.67h2v18.24a14.08,14.08,0,0,1-1.72,7.24,11.15,11.15,0,0,1-4.74,4.46A15.57,15.57,0,0,1,731.07,138.14Z"/><path class="cls-2" d="M768.55,138.14a15.32,15.32,0,0,1-7.8-2,14.13,14.13,0,0,1-5.36-5.56,19.09,19.09,0,0,1,0-16.89,14,14,0,0,1,5.36-5.55,15.32,15.32,0,0,1,7.8-2,16.45,16.45,0,0,1,6.8,1.37,11.65,11.65,0,0,1,4.84,3.86,9.92,9.92,0,0,1,1.78,5.92v.47H779.8v-.47a8.21,8.21,0,0,0-2.94-6.71q-2.94-2.4-8.31-2.4a14.07,14.07,0,0,0-6.94,1.62,10.91,10.91,0,0,0-4.49,4.72,19.06,19.06,0,0,0,0,15.15,10.87,10.87,0,0,0,4.49,4.75,14.07,14.07,0,0,0,6.94,1.62c3.58,0,6.35-.81,8.31-2.41A8.18,8.18,0,0,0,779.8,127v-.46H782V127a10,10,0,0,1-1.78,5.9,11.55,11.55,0,0,1-4.84,3.89A16.45,16.45,0,0,1,768.55,138.14Z"/><path class="cls-2" d="M804.83,138.14a15.32,15.32,0,0,1-7.8-2,14.23,14.23,0,0,1-5.37-5.56,19.17,19.17,0,0,1,0-16.89,14.13,14.13,0,0,1,5.37-5.55,15.32,15.32,0,0,1,7.8-2,16.45,16.45,0,0,1,6.8,1.37,11.65,11.65,0,0,1,4.84,3.86,10,10,0,0,1,1.78,5.92v.47h-2.18v-.47a8.2,8.2,0,0,0-2.93-6.71q-2.94-2.4-8.31-2.4a14.07,14.07,0,0,0-6.94,1.62,10.85,10.85,0,0,0-4.49,4.72,19.06,19.06,0,0,0,0,15.15,10.82,10.82,0,0,0,4.49,4.75,14.07,14.07,0,0,0,6.94,1.62c3.58,0,6.35-.81,8.31-2.41a8.18,8.18,0,0,0,2.93-6.71v-.46h2.18V127a10,10,0,0,1-1.78,5.9,11.55,11.55,0,0,1-4.84,3.89A16.45,16.45,0,0,1,804.83,138.14Z"/><path class="cls-2" d="M829.36,137.68h-2.09v-31h2.09Z"/><path class="cls-2" d="M853.65,138.14a15.71,15.71,0,0,1-7.87-2,14.24,14.24,0,0,1-5.46-5.56,18.91,18.91,0,0,1,0-16.89,14.15,14.15,0,0,1,5.46-5.55,16.78,16.78,0,0,1,15.78,0,14.19,14.19,0,0,1,5.42,5.55,18.91,18.91,0,0,1,0,16.89,14.28,14.28,0,0,1-5.42,5.56A15.6,15.6,0,0,1,853.65,138.14Zm0-2a14.42,14.42,0,0,0,7.06-1.62,10.9,10.9,0,0,0,4.53-4.75,18.73,18.73,0,0,0,0-15.15,10.94,10.94,0,0,0-4.53-4.72,16.13,16.13,0,0,0-14.09,0,10.89,10.89,0,0,0-4.56,4.72,18.73,18.73,0,0,0,0,15.15,10.86,10.86,0,0,0,4.56,4.75A14.4,14.4,0,0,0,853.65,136.11Z"/><path class="cls-2" d="M880.07,137.68H878v-31h2.31l18,23.23,3.6,4.73h.19l-.05-4.68V106.67h2v31h-2.27l-17.77-22.91-3.84-5H880l0,5Z"/><path class="cls-2" d="M916.49,137.68h-2.08v-31h2.08Zm20.59-29.11H915.29v-1.9h21.79ZM936.39,123h-21.1v-1.85h21.1Zm.69,14.67H915.29v-1.9h21.79Z"/><path class="cls-2" d="M957.68,138.14a17.36,17.36,0,0,1-7.39-1.36,9.3,9.3,0,0,1-4.23-3.68,9.94,9.94,0,0,1-1.34-5v-.27h2.08v.55a7.56,7.56,0,0,0,1.14,4.24,7.1,7.1,0,0,0,3.54,2.66,17.67,17.67,0,0,0,6.2.92,18.36,18.36,0,0,0,5.39-.67,6.74,6.74,0,0,0,3.26-2,5.13,5.13,0,0,0,1.11-3.38,5,5,0,0,0-1.83-4.3,15.18,15.18,0,0,0-5.57-2.18l-5.88-1.2a27.36,27.36,0,0,1-4.51-1.44,8.07,8.07,0,0,1-3.36-2.47,6.63,6.63,0,0,1-1.25-4.19,7.07,7.07,0,0,1,.67-2.94,7.28,7.28,0,0,1,2.11-2.61,10.86,10.86,0,0,1,3.7-1.85,18.39,18.39,0,0,1,5.42-.7,15.06,15.06,0,0,1,6.94,1.39,9.19,9.19,0,0,1,4,3.68,10.16,10.16,0,0,1,1.28,5v.28H967V116a7.84,7.84,0,0,0-1.08-4.23,6.75,6.75,0,0,0-3.34-2.64,15.47,15.47,0,0,0-5.71-.9,19.15,19.15,0,0,0-5.46.65,6.45,6.45,0,0,0-3.24,1.94,4.92,4.92,0,0,0-1.07,3.24,5.71,5.71,0,0,0,.82,3.24,5.46,5.46,0,0,0,2.49,1.92,26.54,26.54,0,0,0,4.28,1.32l5.83,1.2a20.43,20.43,0,0,1,4.59,1.46,8.21,8.21,0,0,1,3.21,2.54,6.71,6.71,0,0,1,1.18,4.1,7.11,7.11,0,0,1-1.27,4,8.89,8.89,0,0,1-3.86,3.1A16.27,16.27,0,0,1,957.68,138.14Z"/></g></g></svg>